<svg width="300" height="300" viewBox="0 0 300 300" fill="none" xmlns="http://www.w3.org/2000/svg">
<rect width="300" height="300" rx="60" fill="#EE5A29"/>
<path d="M219.389 66.9956H80.8643C66.5309 66.9956 54.8879 78.6386 54.8879 92.972V207.02C54.8879 217.735 61.0308 226.925 70.9118 231.02C74.2214 232.401 77.65 233.068 81.0071 233.068C87.6977 233.068 94.1738 230.425 99.1978 225.401L150.103 174.496L201.008 225.401C206.032 230.425 212.532 233.068 219.198 233.068C222.579 233.068 225.984 232.401 229.294 231.02C239.175 226.925 245.318 217.735 245.318 207.02V92.972C245.318 78.6386 233.675 66.9956 219.341 66.9956H219.389ZM228.056 207.02C228.056 212.377 223.96 214.497 222.722 215.02C221.46 215.544 217.079 216.949 213.294 213.139L99.2215 99.0912C95.4358 95.3053 96.8169 90.9005 97.3406 89.6624C97.8644 88.4243 99.9834 84.3052 105.341 84.3052H219.389C224.151 84.3052 228.056 88.1862 228.056 92.972V207.02Z" fill="white"/>
</svg>
